<?xml version="1.0" standalone="no"?>
<!DOCTYPE svg PUBLIC "-//W3C//DTD SVG 20010904//EN"
 "http://www.w3.org/TR/2001/REC-SVG-20010904/DTD/svg10.dtd">
<svg version="1.0" xmlns="http://www.w3.org/2000/svg"
 width="264.000000pt" height="264.000000pt" viewBox="0 0 264.000000 264.000000"
 preserveAspectRatio="xMidYMid meet">
<metadata>
Created by potrace 1.11, written by Peter Selinger 2001-2013
</metadata>
<g transform="translate(0.000000,264.000000) scale(0.100000,-0.100000)"
fill="#000000" stroke="none">
<path d="M0 1320 l0 -1300 1320 0 1320 0 0 250 c0 188 -3 250 -12 250 -9 0 -9
3 0 12 9 9 12 256 12 1050 l0 1038 -185 0 -185 0 0 -24 c0 -23 -16 -36 -45
-36 -17 0 -26 35 -12 49 8 8 2 11 -21 11 -35 0 -34 4 -35 -140 0 -19 -5 -38
-11 -42 -8 -5 -7 -8 2 -8 6 0 12 -5 12 -11 0 -5 -6 -7 -12 -3 -10 6 -10 4 -3
-7 6 -8 10 -21 9 -29 -1 -8 -2 -28 -3 -45 l-2 -30 -13 24 c-15 26 -12 144 4
187 6 14 6 26 0 29 -6 4 -10 22 -10 41 l0 34 -280 0 -280 0 0 -101 c0 -90 -2
-100 -17 -97 -15 3 -18 17 -21 101 l-3 97 -319 0 -320 0 0 -31 c0 -33 -63
-164 -67 -139 -1 8 -5 50 -8 93 l-7 77 -404 0 -404 0 0 -1300z m2187 1128 c-3
-7 -5 -2 -5 12 0 14 2 19 5 13 2 -7 2 -19 0 -25z m-587 -643 c0 -23 58 -27
309 -21 159 4 242 3 246 -4 4 -6 -28 -10 -92 -11 -54 -1 -107 -3 -118 -4 -11
-1 -84 -3 -162 -3 -136 -2 -141 -3 -136 -22 3 -12 0 -20 -7 -20 -6 0 -14 9
-17 20 -3 11 -9 20 -14 20 -5 0 -6 -6 -3 -13 3 -8 -2 -20 -11 -27 -13 -11 -15
-8 -15 19 0 18 5 31 13 32 10 0 10 2 0 6 -7 2 -13 16 -13 29 0 14 4 22 10 19
6 -3 10 -12 10 -20z m-770 -35 c10 -7 -9 -10 -67 -8 -45 2 -79 6 -77 10 7 12
127 9 144 -2z m-247 -7 c-23 -2 -64 -2 -90 0 -26 2 -7 3 42 3 50 0 71 -1 48
-3z m80 0 c-7 -2 -19 -2 -25 0 -7 3 -2 5 12 5 14 0 19 -2 13 -5z m-608 -13 c4
-6 -5 -10 -19 -10 -14 0 -26 5 -26 10 0 6 9 10 19 10 11 0 23 -4 26 -10z m195
0 c-33 -8 -98 -13 -147 -11 -13 1 -23 6 -23 11 0 6 40 10 103 9 77 -1 93 -3
67 -9z m1410 -133 c0 -8 -9 -22 -19 -32 -19 -17 -20 -16 -17 11 5 36 3 34 21
34 8 0 15 -6 15 -13z m-50 -47 c0 -5 -4 -10 -10 -10 -5 0 -10 5 -10 10 0 6 5
10 10 10 6 0 10 -4 10 -10z m-107 -37 c-7 -2 -19 -2 -25 0 -7 3 -2 5 12 5 14
0 19 -2 13 -5z m97 -3 c0 -5 -8 -10 -17 -10 -15 0 -16 2 -3 10 19 12 20 12 20
0z m50 -42 c-1 -28 -25 -62 -38 -54 -21 13 -31 -64 -16 -116 3 -10 0 -18 -7
-18 -7 0 -9 3 -6 6 3 4 -5 15 -18 26 -28 22 -31 40 -10 61 8 8 12 16 10 19 -8
7 -14 58 -7 59 31 7 71 6 66 -2 -3 -5 -3 -9 0 -9 14 0 14 20 0 34 -14 15 -14
16 5 16 15 0 21 -6 21 -22z m-50 8 c0 -8 -51 -13 -56 -5 -3 5 9 9 25 9 17 0
31 -2 31 -4z m482 -26 c147 0 270 -4 278 -10 12 -7 11 -9 -5 -8 -50 2 -499
-13 -503 -16 -2 -3 31 -41 75 -86 93 -97 92 -95 74 -85 -10 6 -13 4 -9 -6 18
-48 20 -61 7 -57 -8 3 -19 15 -26 28 -18 36 -44 41 -70 14 -25 -27 -73 -33
-73 -8 0 9 5 12 13 8 8 -5 7 -2 -2 9 -12 16 -12 17 5 11 13 -4 11 -1 -6 12
-48 35 -65 54 -49 54 9 0 10 3 3 8 -6 4 -9 16 -7 27 6 28 6 44 0 87 -5 35 -4
37 13 28 11 -6 127 -10 282 -10z m-1858 -45 c4 -12 -6 -15 -62 -14 -44 0 -60
3 -47 8 11 5 34 6 51 4 18 -3 35 0 38 6 9 15 13 14 20 -4z m431 5 c-29 -12
-234 -12 -215 0 8 5 65 9 125 9 71 0 103 -3 90 -9z m-582 -17 c-7 -2 -21 -2
-30 0 -10 3 -4 5 12 5 17 0 24 -2 18 -5z m1545 -24 c-2 -7 -10 -4 -18 7 -9 11
-10 15 -2 10 7 -4 12 -2 13 6 0 10 2 10 6 1 2 -7 3 -18 1 -24z m42 -3 c0 -2
-7 -7 -16 -10 -8 -3 -12 -2 -9 4 6 10 25 14 25 6z m107 -53 c-3 -10 -5 -4 -5
12 0 17 2 24 5 18 2 -7 2 -21 0 -30z m-130 -108 c9 -16 20 -46 23 -65 4 -19
11 -44 14 -55 4 -12 1 -9 -8 6 -8 14 -16 32 -18 40 -2 8 -5 16 -8 19 -11 11
-40 82 -40 98 0 19 8 11 37 -43z m-227 0 c0 -12 -6 -28 -14 -34 -22 -19 -35
24 -20 68 7 21 34 -6 34 -34z m398 -5 c-7 -10 -14 -17 -17 -15 -4 4 18 35 25
35 2 0 -1 -9 -8 -20z m126 2 c2 -4 -9 -15 -25 -24 l-29 -17 17 24 c19 26 29
30 37 17z m-4 -52 c-20 -13 -43 -13 -35 0 3 6 16 10 28 10 18 0 19 -2 7 -10z
m130 -30 c0 -5 -5 -10 -11 -10 -5 0 -7 5 -4 10 3 6 8 10 11 10 2 0 4 -4 4 -10z
m-654 -99 c-4 -31 -7 -61 -8 -68 -1 -7 -6 -14 -13 -17 -7 -2 -10 6 -7 25 2 16
0 29 -6 29 -6 0 -8 -9 -5 -20 3 -11 0 -20 -6 -20 -6 0 -8 -8 -4 -17 5 -15 3
-16 -8 -5 -7 6 -21 12 -31 12 -23 0 -60 71 -40 77 6 3 12 14 12 24 0 11 5 17
10 14 6 -3 10 -2 10 3 0 25 31 20 44 -7 23 -43 42 -36 40 17 -1 33 1 40 9 27
5 -9 6 -42 3 -74z m752 50 l20 -28 139 4 c157 4 157 -11 -1 -23 -53 -4 -96
-11 -96 -16 0 -5 -12 3 -27 17 -15 14 -31 25 -36 25 -12 0 -57 47 -50 53 9 10
29 -3 51 -32z m335 -28 c-7 -2 -19 -2 -25 0 -7 3 -2 5 12 5 14 0 19 -2 13 -5z
m90 0 c-13 -2 -35 -2 -50 0 -16 2 -5 4 22 4 28 0 40 -2 28 -4z m-2099 -65 c-7
-12 -54 -10 -54 2 0 6 13 9 29 8 16 -1 27 -6 25 -10z m999 -8 c3 -11 1 -17 -4
-14 -5 3 -12 -2 -15 -10 -3 -9 -11 -16 -16 -16 -7 0 -6 5 1 13 6 8 7 18 3 22
-4 5 -1 4 7 0 11 -6 13 -4 8 8 -3 10 -3 17 2 17 5 0 11 -9 14 -20z m701 14 c9
-3 13 -10 10 -15 -8 -14 -21 -11 -28 6 -6 17 -4 18 18 9z m-700 -53 c3 -5 -1
-11 -9 -14 -9 -4 -12 -1 -8 9 6 16 10 17 17 5z m907 -94 c7 -18 19 -36 26 -40
19 -12 46 -75 39 -93 -3 -8 -10 -12 -16 -9 -5 3 -10 1 -10 -4 0 -6 7 -11 15
-11 18 0 19 -12 3 -28 -8 -8 -16 -6 -30 10 -10 12 -16 28 -14 35 3 7 1 15 -4
18 -5 3 -7 23 -5 45 4 46 4 46 -32 23 l-25 -17 7 35 c5 18 7 47 6 63 -1 24 1
27 13 17 7 -6 20 -26 27 -44z m-961 14 c0 -5 -7 -11 -14 -14 -10 -4 -13 -1 -9
9 6 15 23 19 23 5z m-332 -74 c2 -9 -2 -17 -8 -17 -16 0 -41 26 -33 34 12 12
38 1 41 -17z m1270 -56 c2 -13 -2 -28 -8 -35 -9 -8 -11 -3 -6 24 5 28 4 31 -4
13 -13 -30 -18 -29 -12 2 5 31 26 28 30 -4z m-239 -235 c-2 -2 -43 -7 -91 -11
-61 -5 -88 -3 -88 4 0 7 32 11 92 11 50 0 89 -2 87 -4z m-1431 -63 c-38 -2
-98 -2 -135 0 -38 2 -7 3 67 3 74 0 105 -1 68 -3z"/>
<path d="M1875 1250 c3 -5 8 -10 11 -10 2 0 4 5 4 10 0 6 -5 10 -11 10 -5 0
-7 -4 -4 -10z"/>
<path d="M1375 1221 c-3 -5 -2 -12 3 -15 5 -3 9 1 9 9 0 17 -3 19 -12 6z"/>
<path d="M1312 985 c-11 -12 -10 -15 3 -15 8 0 15 7 15 15 0 18 -2 18 -18 0z"/>
</g>
</svg>
